<svg id="Clean" xmlns="http://www.w3.org/2000/svg" xmlns:xlink="http://www.w3.org/1999/xlink" width="244.15mm" height="161.65mm" viewBox="0 0 692.07 458.21"><defs><style>.cls-1,.cls-11,.cls-29,.cls-30,.cls-31,.cls-4,.cls-7,.cls-9{fill:none;}.cls-13,.cls-2{opacity:0.58;}.cls-13,.cls-3,.cls-6{fill:#00a651;}.cls-13,.cls-3{stroke:#02723b;}.cls-10,.cls-11,.cls-12,.cls-13,.cls-21,.cls-29,.cls-3,.cls-30,.cls-31,.cls-4,.cls-7,.cls-8,.cls-9{stroke-miterlimit:10;}.cls-11,.cls-13,.cls-29,.cls-3,.cls-4{stroke-width:4px;}.cls-4{stroke:#00a651;}.cls-5{clip-path:url(#clip-path);}.cls-12,.cls-21,.cls-7,.cls-8,.cls-9{stroke:#231f20;}.cls-12,.cls-31,.cls-7{stroke-width:2px;}.cls-12,.cls-21,.cls-8{fill:#fff;}.cls-8{stroke-width:1.5px;}.cls-21,.cls-8{fill-rule:evenodd;}.cls-10,.cls-17{fill:#00aeef;opacity:0.6;}.cls-10{stroke:#0090bc;}.cls-10,.cls-30{stroke-width:5px;}.cls-11{stroke:#00aeef;}.cls-14{fill:#ec008c;}.cls-15{clip-path:url(#clip-path-2);}.cls-16{clip-path:url(#clip-path-3);}.cls-18{fill:#2e3192;}.cls-19{clip-path:url(#clip-path-4);}.cls-20{clip-path:url(#clip-path-5);}.cls-22{fill:#fff200;}.cls-23{font-size:9px;}.cls-23,.cls-24,.cls-26{fill:#231f20;font-family:Avenir Next;}.cls-24{font-size:12px;}.cls-25{white-space:pre;}.cls-26{font-size:16.26px;}.cls-27{fill:#29180d;}.cls-28{fill:#58595b;}.cls-29,.cls-30,.cls-31{stroke:#6d6e71;}</style><clipPath id="clip-path" transform="translate(612.51 0.48)"><circle class="cls-1" cx="-388.03" cy="40.01" r="21.51"/></clipPath><clipPath id="clip-path-2" transform="translate(612.51 0.48)"><circle class="cls-1" cx="-435.53" cy="280.01" r="21.51"/></clipPath><clipPath id="clip-path-3" transform="translate(612.51 0.48)"><circle class="cls-1" cx="-309.03" cy="272.51" r="21.51"/></clipPath><clipPath id="clip-path-4" transform="translate(612.51 0.48)"><circle class="cls-1" cx="-274.53" cy="98.01" r="29.01"/></clipPath><clipPath id="clip-path-5" transform="translate(612.51 0.48)"><circle class="cls-1" cx="35.47" cy="30.01" r="29.01"/></clipPath></defs><title>immaterial</title><g class="cls-2"><path class="cls-3" d="M-580.47,314.86A30,30,0,0,1-606.4,300a30,30,0,0,1,10.75-41c18.4-10.76,29.14-22.28,31.93-34.24,1.52-6.55.18-10.58-4.32-22.34s-10.54-27.6-11.75-49.9c-0.48-8.83-3-87.49,56.87-129,45-31.17,96.37-21.76,116.37-16.27a30,30,0,0,1,21,36.87,30,30,0,0,1-36.87,21c-9.27-2.54-41.43-9.51-66.3,7.73C-502.14,82.13-511.43,97-516.37,117a120.68,120.68,0,0,0-3.51,32.25c0.7,12.92,4,21.64,7.89,31.74,5.55,14.53,12.46,32.62,6.71,57.35-6.67,28.65-26.88,53-60.07,72.43A29.86,29.86,0,0,1-580.47,314.86Z" transform="translate(612.51 0.48)"/></g><line class="cls-4" x1="249.67" y1="223" x2="240.41" y2="25.87"/><g class="cls-5"><rect class="cls-6" x="194.67" y="0.52" width="62.5" height="63.49"/></g><circle class="cls-7" cx="224.47" cy="40.49" r="21.51"/><path class="cls-8" d="M-395.55,54.81a0.48,0.48,0,0,1-.25-0.07,0.48,0.48,0,0,1-.19-0.6l5.4-12.83h-5a0.48,0.48,0,0,1-.41-0.23,0.48,0.48,0,0,1,0-.47l7.23-14.47a0.48,0.48,0,0,1,.43-0.27h7.72a0.48,0.48,0,0,1,.42.25,0.48,0.48,0,0,1,0,.49l-5.64,8.91h5.72a0.48,0.48,0,0,1,.44.28,0.48,0.48,0,0,1-.07.52l-15.43,18.33a0.48,0.48,0,0,1-.37.17" transform="translate(612.51 0.48)"/><line class="cls-9" x1="252.89" y1="224.81" x2="352.97" y2="211.62"/><path class="cls-10" d="M-258,270.52c19.47,10.39,27.75,28.4,34,42,5.34,11.62,24.72,53.79,3.5,90.5-13.9,24-44.4,44.34-63.5,36.5-13.41-5.5-7.86-19.41-26.5-51-19.6-33.22-37.88-38.43-43-67-1.43-8-3.29-18.36,1.5-29C-339.58,265-290.53,253.15-258,270.52Z" transform="translate(612.51 0.48)"/><line class="cls-11" x1="252.89" y1="224.81" x2="304.84" y2="271.56"/><circle class="cls-12" cx="303.47" cy="272.99" r="21.51"/><path class="cls-13" d="M-478.33,285c-19.47,10.39-27.75,28.4-34,42-5.34,11.62-24.72,53.79-3.5,90.5,13.9,24,44.4,44.34,63.5,36.5,13.41-5.5,7.86-19.41,26.5-51,19.6-33.22,37.88-38.43,43-67,1.43-8,3.29-18.36-1.5-29C-396.72,279.51-445.77,267.65-478.33,285Z" transform="translate(612.51 0.48)"/><line class="cls-4" x1="247.17" y1="226" x2="192.91" y2="265.87"/><path class="cls-14" d="M-330.75,173.42l16-5.13c1.4-.45,2.48-2.42,2.44-4.41v-0.33l-16,5.13c-1.4.45-2.48,2.42-2.44,4.41v0.33Z" transform="translate(612.51 0.48)"/><path class="cls-14" d="M-308.46,158.1l-16,5.13c-1.4.45-2.48,2.42-2.44,4.41V168l16-5.13c1.4-.45,2.48-2.42,2.44-4.41V158.1Z" transform="translate(612.51 0.48)"/><path class="cls-14" d="M-304.6,152.65l-16,5.13c-1.4.45-2.48,2.42-2.44,4.41v0.33l16-5.13c1.4-.45,2.48-2.42,2.44-4.41v-0.33Z" transform="translate(612.51 0.48)"/><path class="cls-14" d="M-300.73,147.21l-16,5.13c-1.4.45-2.48,2.42-2.44,4.41v0.33l16-5.13c1.4-.45,2.48-2.42,2.44-4.41v-0.33Z" transform="translate(612.51 0.48)"/><path class="cls-14" d="M-296.86,141.76l-16,5.13c-1.4.45-2.48,2.42-2.44,4.41v0.33l16-5.13c1.4-.45,2.48-2.42,2.44-4.41v-0.33Z" transform="translate(612.51 0.48)"/><path class="cls-14" d="M-293,136.31l-16,5.13c-1.4.45-2.48,2.42-2.44,4.41v0.33l16-5.13c1.4-.45,2.48-2.42,2.44-4.41v-0.33Z" transform="translate(612.51 0.48)"/><path class="cls-14" d="M-289.12,130.87l-16,5.13c-1.4.45-2.48,2.42-2.44,4.41v0.33l16-5.13c1.4-.45,2.48-2.42,2.44-4.41v-0.33Z" transform="translate(612.51 0.48)"/><path class="cls-14" d="M-303.67,135.29l16-5.13c1.4-.45,2.48-2.42,2.44-4.41v-0.33l-16,5.13c-1.4.45-2.48,2.42-2.44,4.41v0.33Z" transform="translate(612.51 0.48)"/><path class="cls-14" d="M-343.29,207.11l-16,5.13c-1.4.45-2.48,2.42-2.44,4.41V217l16-5.13c1.4-.45,2.48-2.42,2.44-4.41v-0.33Z" transform="translate(612.51 0.48)"/><path class="cls-14" d="M-339.42,201.66l-16,5.13c-1.4.45-2.48,2.42-2.44,4.41v0.33l16-5.13c1.4-.45,2.48-2.42,2.44-4.41v-0.33Z" transform="translate(612.51 0.48)"/><path class="cls-14" d="M-335.55,196.22l-16,5.13c-1.4.45-2.48,2.42-2.44,4.41v0.33l16-5.13c1.4-.45,2.48-2.42,2.44-4.41v-0.33Z" transform="translate(612.51 0.48)"/><path class="cls-14" d="M-331.68,190.77l-16,5.13c-1.4.45-2.48,2.42-2.44,4.41v0.33l16-5.13c1.4-.45,2.48-2.42,2.44-4.41v-0.33Z" transform="translate(612.51 0.48)"/><path class="cls-14" d="M-327.81,185.33l-16,5.13c-1.4.45-2.48,2.42-2.44,4.41v0.33l16-5.13c1.4-.45,2.48-2.42,2.44-4.41v-0.33Z" transform="translate(612.51 0.48)"/><path class="cls-14" d="M-323.94,179.88l-16,5.13c-1.4.45-2.48,2.42-2.44,4.41v0.33l16-5.13c1.4-.45,2.48-2.42,2.44-4.41v-0.33Z" transform="translate(612.51 0.48)"/><path class="cls-14" d="M-320.07,174.43l-16,5.13c-1.4.45-2.48,2.42-2.44,4.41v0.33l16-5.13c1.4-.45,2.48-2.42,2.44-4.41v-0.33Z" transform="translate(612.51 0.48)"/><path class="cls-14" d="M-316.2,169l-16,5.13c-1.4.45-2.48,2.42-2.44,4.41v0.33l16-5.13c1.4-.45,2.48-2.42,2.44-4.41V169Z" transform="translate(612.51 0.48)"/><path class="cls-14" d="M-293.35,119.61l-0.16,0c-1.4.45-2.48,2.42-2.44,4.41v0.33l6.43-2.06Z" transform="translate(612.51 0.48)"/><path class="cls-14" d="M-289.27,122.51l-8.1,2.6c-1.4.45-2.48,2.42-2.44,4.41v0.33l9.26-3,5.11-1.64Z" transform="translate(612.51 0.48)"/><path class="cls-14" d="M-353.58,222.81l0.17-.07c1.4-.45,2.49-2.43,2.44-4.42l0-.31-6.44,2.07Z" transform="translate(612.51 0.48)"/><path class="cls-14" d="M-357.66,219.91l1.38-.46,6.74-2.17c1.4-.45,2.49-2.43,2.44-4.42v-0.33l-9.27,3-5.13,1.66Z" transform="translate(612.51 0.48)"/><ellipse class="cls-14" cx="-359.92" cy="222.87" rx="11.13" ry="11.27" transform="translate(82.97 -164.52) rotate(-81.85)"/><g class="cls-15"><rect class="cls-6" x="147.17" y="240.52" width="62.5" height="63.49"/></g><circle class="cls-7" cx="176.97" cy="280.49" r="21.51"/><path class="cls-8" d="M-443.05,294.81a0.48,0.48,0,0,1-.25-0.07,0.48,0.48,0,0,1-.19-0.6l5.4-12.83h-5a0.48,0.48,0,0,1-.41-0.23,0.48,0.48,0,0,1,0-.47l7.23-14.47a0.48,0.48,0,0,1,.43-0.27h7.72a0.48,0.48,0,0,1,.42.25,0.48,0.48,0,0,1,0,.49l-5.64,8.91h5.72a0.48,0.48,0,0,1,.44.28,0.48,0.48,0,0,1-.07.52l-15.43,18.33a0.48,0.48,0,0,1-.37.17" transform="translate(612.51 0.48)"/><g class="cls-16"><rect class="cls-17" x="273.67" y="245.75" width="62.5" height="50.75"/></g><circle class="cls-7" cx="303.47" cy="272.99" r="21.51"/><path class="cls-8" d="M-316.55,287.31a0.48,0.48,0,0,1-.25-0.07,0.48,0.48,0,0,1-.19-0.6l5.4-12.83h-5a0.48,0.48,0,0,1-.41-0.23,0.48,0.48,0,0,1,0-.47l7.23-14.47a0.48,0.48,0,0,1,.43-0.27h7.72a0.48,0.48,0,0,1,.42.25,0.48,0.48,0,0,1,0,.49l-5.64,8.91h5.72a0.48,0.48,0,0,1,.44.28,0.48,0.48,0,0,1-.07.52l-15.43,18.33a0.48,0.48,0,0,1-.37.17" transform="translate(612.51 0.48)"/><circle class="cls-12" cx="354.47" cy="213.99" r="21.51"/><circle class="cls-18" cx="354.47" cy="213.99" r="21.51"/><circle class="cls-7" cx="354.47" cy="213.99" r="21.51"/><path class="cls-8" d="M-265.55,228.31a0.48,0.48,0,0,1-.25-0.07,0.48,0.48,0,0,1-.19-0.6l5.4-12.83h-5a0.48,0.48,0,0,1-.41-0.23,0.48,0.48,0,0,1,0-.47l7.23-14.47a0.48,0.48,0,0,1,.43-0.27h7.72a0.48,0.48,0,0,1,.42.25,0.48,0.48,0,0,1,0,.49l-5.64,8.91h5.72a0.48,0.48,0,0,1,.44.28,0.48,0.48,0,0,1-.07.52l-15.43,18.33a0.48,0.48,0,0,1-.37.17" transform="translate(612.51 0.48)"/><g class="cls-19"><rect class="cls-14" x="297.78" y="103.23" width="84.29" height="26.97"/></g><circle class="cls-7" cx="337.97" cy="98.49" r="29.01"/><path class="cls-8" d="M-284.67,118a0.65,0.65,0,0,1-.34-0.09,0.65,0.65,0,0,1-.26-0.81L-278,99.76h-6.69a0.65,0.65,0,0,1-.55-0.31,0.65,0.65,0,0,1,0-.63l9.76-19.51a0.65,0.65,0,0,1,.58-0.36h10.41a0.65,0.65,0,0,1,.57.34,0.65,0.65,0,0,1,0,.66l-7.61,12h7.71a0.65,0.65,0,0,1,.59.38,0.65,0.65,0,0,1-.09.7l-20.82,24.72a0.65,0.65,0,0,1-.5.23" transform="translate(612.51 0.48)"/><g id="power"><g id="power_container"><g class="cls-20"><rect id="power_fill" class="cls-14" x="607.78" y="35.23" width="84.29" height="26.97"/></g></g><circle id="power_overlay" class="cls-7" cx="647.97" cy="30.49" r="29.01"/><path id="symbol" class="cls-8" d="M25.33,50a0.65,0.65,0,0,1-.6-0.9L32,31.76H25.33a0.65,0.65,0,0,1-.58-0.94L34.5,11.31a0.65,0.65,0,0,1,.58-0.36H45.49a0.65,0.65,0,0,1,.55,1L38.43,24h7.71a0.65,0.65,0,0,1,.5,1.07L25.82,49.75a0.65,0.65,0,0,1-.5.23" transform="translate(612.51 0.48)"/></g><path class="cls-21" d="M1.09,169.81A0.58,0.58,0,0,1,.55,169l6.57-15.61h-6a0.59,0.59,0,0,1-.53-0.85L9.36,135a0.59,0.59,0,0,1,.53-0.32h9.38a0.59,0.59,0,0,1,.49.9L12.9,146.36h6.95a0.59,0.59,0,0,1,.45,1L1.53,169.61a0.58,0.58,0,0,1-.45.21" transform="translate(612.51 0.48)"/><path class="cls-22" d="M-226.42,71.74l-8.65-15a3.17,3.17,0,0,0-2.57-1.89,3.17,3.17,0,0,0-2.57,1.89l-8.64,15a3.18,3.18,0,0,0-.36,3.17,3.2,3.2,0,0,0,2.93,1.28H-229a3.2,3.2,0,0,0,2.92-1.28A3.17,3.17,0,0,0-226.42,71.74Zm-11.08,1.7a1.63,1.63,0,0,1-1.63-1.63,1.63,1.63,0,0,1,1.63-1.62,1.63,1.63,0,0,1,1.63,1.62A1.63,1.63,0,0,1-237.5,73.44Zm1.28-5.49h0s0,0.1,0,.15a1.27,1.27,0,0,1-1.25,1A1.27,1.27,0,0,1-238.77,68h0L-239.17,62a1.67,1.67,0,0,1,1.67-1.67A1.67,1.67,0,0,1-235.83,62Z" transform="translate(612.51 0.48)"/><text class="cls-23" transform="translate(205.84 234.17)">10%</text><text class="cls-23" transform="translate(271.17 217.5)">0%</text><text class="cls-23" transform="translate(249.17 244)">40%</text><text class="cls-23" transform="translate(217.67 202.5)">60%</text><text class="cls-24" transform="translate(396.17 201.05)">0<tspan x="7.14" y="0">W</tspan></text><text class="cls-24" transform="translate(321.67 255.5) scale(1.05 1)">3.0<tspan x="17.4" y="0">W</tspan><tspan x="28.46" y="0">,</tspan><tspan class="cls-25" x="31.22" y="0"> 10 s</tspan></text><text class="cls-24" transform="translate(260.67 37.39)">7.5<tspan x="17.4" y="0">W</tspan></text><line class="cls-7" x1="254.46" y1="33.54" x2="246.03" y2="44.71"/><line class="cls-7" x1="255.47" y1="26.38" x2="255.08" y2="40.49"/><text class="cls-24" transform="translate(105.17 276.05)">7.5<tspan x="17.4" y="0">W</tspan></text><line class="cls-7" x1="137.66" y1="272.21" x2="155.46" y2="280.49"/><line class="cls-7" x1="137.52" y1="264.84" x2="137.13" y2="278.94"/><text class="cls-26" transform="translate(154.67 319.69)">26 Ω</text><text class="cls-26" transform="translate(161 39.69)">26 Ω</text><text class="cls-23" transform="matrix(0.63, -0.78, 0.78, 0.63, 280.94, 162.76)">0.92<tspan x="18.4" y="0">A</tspan></text><path class="cls-27" d="M-225.36,71.38l-8.64-15a4,4,0,0,0-3.35-2.33,4,4,0,0,0-3.35,2.33l-8.64,15a4,4,0,0,0-.35,4.07,4,4,0,0,0,3.7,1.72h17.29a4,4,0,0,0,3.7-1.72A4,4,0,0,0-225.36,71.38ZM-225.78,75a3.2,3.2,0,0,1-2.92,1.28H-246A3.2,3.2,0,0,1-248.92,75a3.18,3.18,0,0,1,.36-3.17l8.64-15A3.17,3.17,0,0,1-237.35,55a3.17,3.17,0,0,1,2.57,1.89l8.65,15A3.17,3.17,0,0,1-225.78,75Zm-11.43-14.56a1.67,1.67,0,0,0-1.67,1.67l0.39,5.93h0a1.27,1.27,0,0,0,1.27,1.17,1.27,1.27,0,0,0,1.25-1s0-.1,0-0.15h0l0.39-5.93A1.67,1.67,0,0,0-237.21,60.44Zm0,9.84a1.63,1.63,0,0,0-1.63,1.62,1.63,1.63,0,0,0,1.63,1.63,1.63,1.63,0,0,0,1.63-1.63A1.63,1.63,0,0,0-237.21,70.28ZM-238.48,68a1.27,1.27,0,0,0,1.27,1.17,1.27,1.27,0,0,0,1.25-1s0-.1,0-0.15h0l0.39-5.93a1.67,1.67,0,0,0-1.67-1.67,1.67,1.67,0,0,0-1.67,1.67l0.39,5.93h0Zm1.27,2.24a1.63,1.63,0,0,0-1.63,1.62,1.63,1.63,0,0,0,1.63,1.63,1.63,1.63,0,0,0,1.63-1.63A1.63,1.63,0,0,0-237.21,70.28Zm0,0a1.63,1.63,0,0,0-1.63,1.62,1.63,1.63,0,0,0,1.63,1.63,1.63,1.63,0,0,0,1.63-1.63A1.63,1.63,0,0,0-237.21,70.28Zm0-9.84a1.67,1.67,0,0,0-1.67,1.67l0.39,5.93h0a1.27,1.27,0,0,0,1.27,1.17,1.27,1.27,0,0,0,1.25-1s0-.1,0-0.15h0l0.39-5.93A1.67,1.67,0,0,0-237.21,60.44Z" transform="translate(612.51 0.48)"/><text class="cls-24" transform="translate(377.67 103)">11<tspan x="14.28" y="0">W</tspan><tspan x="25.34" y="0">,</tspan><tspan class="cls-25" x="28.1" y="0"> 1.2 s</tspan></text><line class="cls-7" x1="391.43" y1="197.71" x2="373.63" y2="205.99"/><line class="cls-7" x1="391.57" y1="190.34" x2="391.96" y2="204.44"/><text class="cls-26" transform="translate(294.67 312.19)">50 Ω</text><circle class="cls-28" cx="373.3" cy="220.5" r="8.12"/><circle class="cls-28" cx="294.14" cy="271.04" r="4.06"/><circle class="cls-28" cx="200.67" cy="284" r="4.86"/><circle class="cls-28" cx="-390.07" cy="52.19" r="2.97" transform="translate(244.76 -340.24) rotate(-79.13)"/><circle class="cls-28" cx="364.26" cy="63.41" r="8.12"/><line class="cls-29" x1="322.69" y1="120.44" x2="200.67" y2="284"/><line class="cls-30" x1="364.26" y1="63.41" x2="322.69" y2="120.44"/><line class="cls-31" x1="322.69" y1="120.44" x2="222.44" y2="52.67"/><line class="cls-31" x1="322.69" y1="120.44" x2="294.14" y2="271.04"/><line class="cls-31" x1="322.69" y1="120.44" x2="373.3" y2="220.5"/><g class="cls-2"><path class="cls-3" d="M-580.47,314.86A30,30,0,0,1-606.4,300a30,30,0,0,1,10.75-41c18.4-10.76,29.14-22.28,31.93-34.24,1.52-6.55.18-10.58-4.32-22.34s-10.54-27.6-11.75-49.9c-0.48-8.83-3-87.49,56.87-129,45-31.17,96.37-21.76,116.37-16.27a30,30,0,0,1,21,36.87,30,30,0,0,1-36.87,21c-9.27-2.54-41.43-9.51-66.3,7.73C-502.14,82.13-511.43,97-516.37,117a120.68,120.68,0,0,0-3.51,32.25c0.7,12.92,4,21.64,7.89,31.74,5.55,14.53,12.46,32.62,6.71,57.35-6.67,28.65-26.88,53-60.07,72.43A29.86,29.86,0,0,1-580.47,314.86Z" transform="translate(612.51 0.48)"/></g><path class="cls-10" d="M-258,270.52c19.47,10.39,27.75,28.4,34,42,5.34,11.62,24.72,53.79,3.5,90.5-13.9,24-44.4,44.34-63.5,36.5-13.41-5.5-7.86-19.41-26.5-51-19.6-33.22-37.88-38.43-43-67-1.43-8-3.29-18.36,1.5-29C-339.58,265-290.53,253.15-258,270.52Z" transform="translate(612.51 0.48)"/><path class="cls-13" d="M-478.33,285c-19.47,10.39-27.75,28.4-34,42-5.34,11.62-24.72,53.79-3.5,90.5,13.9,24,44.4,44.34,63.5,36.5,13.41-5.5,7.86-19.41,26.5-51,19.6-33.22,37.88-38.43,43-67,1.43-8,3.29-18.36-1.5-29C-396.72,279.51-445.77,267.65-478.33,285Z" transform="translate(612.51 0.48)"/></svg>