<svg id="Clean" xmlns="http://www.w3.org/2000/svg" xmlns:xlink="http://www.w3.org/1999/xlink" width="21.17mm" height="21.17mm" viewBox="0 0 60.02 60.02"><defs><style>.cls-1,.cls-5{fill:none;}.cls-2,.cls-6{fill:#fff;}.cls-2,.cls-5,.cls-6{stroke:#231f20;stroke-miterlimit:10;}.cls-2,.cls-5{stroke-width:2px;}.cls-3{clip-path:url(#clip-path);}.cls-4{fill:#ec008c;}.cls-6{stroke-width:1.5px;fill-rule:evenodd;}</style><clipPath id="clip-path"><circle class="cls-1" cx="30.01" cy="30.01" r="29.01"/></clipPath></defs><title>immaterial</title><g id="power"><circle id="power_underlay" class="cls-2" cx="30.01" cy="30.01" r="29.01"/><g id="power_container"><g class="cls-3"><rect id="power_fill" class="cls-4" x="-10.18" y="1" width="84.29" height="59.02"/></g></g><circle id="power_overlay" class="cls-5" cx="30.01" cy="30.01" r="29.01"/><path id="symbol" class="cls-6" d="M19.87,50a0.65,0.65,0,0,1-.6-0.9l7.29-17.31H19.87a0.65,0.65,0,0,1-.58-0.94L29,11.31a0.65,0.65,0,0,1,.58-0.36H40a0.65,0.65,0,0,1,.55,1L33,24h7.71a0.65,0.65,0,0,1,.5,1.07L20.37,49.75a0.65,0.65,0,0,1-.5.23"/></g></svg>