<svg id="Clean" xmlns="http://www.w3.org/2000/svg" xmlns:xlink="http://www.w3.org/1999/xlink" width="210mm" height="297mm" viewBox="0 0 595.28 841.89"><defs><style>.cls-1,.cls-11,.cls-27,.cls-28,.cls-29,.cls-4,.cls-7,.cls-9{fill:none;}.cls-13,.cls-2{opacity:0.58;}.cls-13,.cls-3,.cls-6{fill:#00a651;}.cls-13,.cls-3{stroke:#02723b;}.cls-10,.cls-11,.cls-12,.cls-13,.cls-27,.cls-28,.cls-29,.cls-3,.cls-4,.cls-7,.cls-8,.cls-9{stroke-miterlimit:10;}.cls-11,.cls-13,.cls-27,.cls-3,.cls-4{stroke-width:4px;}.cls-4{stroke:#00a651;}.cls-5{clip-path:url(#clip-path);}.cls-12,.cls-7,.cls-8,.cls-9{stroke:#231f20;}.cls-12,.cls-29,.cls-7{stroke-width:2px;}.cls-12,.cls-8{fill:#fff;}.cls-8{stroke-width:1.5px;fill-rule:evenodd;}.cls-10,.cls-17{fill:#00aeef;opacity:0.6;}.cls-10{stroke:#0090bc;}.cls-10,.cls-28{stroke-width:5px;}.cls-11{stroke:#00aeef;}.cls-14{fill:#ec008c;}.cls-15{clip-path:url(#clip-path-2);}.cls-16{clip-path:url(#clip-path-3);}.cls-18{fill:#2e3192;}.cls-19{clip-path:url(#clip-path-4);}.cls-20{fill:#fff200;}.cls-21{font-size:9px;}.cls-21,.cls-22,.cls-24{fill:#231f20;font-family:Avenir Next;}.cls-22{font-size:12px;}.cls-23{white-space:pre;}.cls-24{font-size:16.26px;}.cls-25{fill:#29180d;}.cls-26{fill:#58595b;}.cls-27,.cls-28,.cls-29{stroke:#6d6e71;}</style><clipPath id="clip-path"><circle class="cls-1" cx="242.8" cy="80.49" r="21.51"/></clipPath><clipPath id="clip-path-2"><circle class="cls-1" cx="195.3" cy="320.49" r="21.51"/></clipPath><clipPath id="clip-path-3"><circle class="cls-1" cx="321.8" cy="312.99" r="21.51"/></clipPath><clipPath id="clip-path-4"><circle class="cls-1" cx="356.3" cy="138.49" r="29.01"/></clipPath></defs><title>immaterial</title><g class="cls-2"><path class="cls-3" d="M50.36,355.34a30,30,0,0,1-15.17-55.9c18.4-10.76,29.14-22.28,31.93-34.24,1.52-6.55.18-10.58-4.32-22.34S52.26,215.26,51,193c-0.48-8.83-3-87.49,56.87-129,45-31.17,96.37-21.76,116.37-16.27a30,30,0,0,1-15.89,57.86c-9.27-2.54-41.43-9.51-66.3,7.73-13.39,9.28-22.68,24.13-27.62,44.13A120.68,120.68,0,0,0,111,189.71c0.7,12.92,4,21.64,7.89,31.74,5.55,14.53,12.46,32.62,6.71,57.35-6.67,28.65-26.88,53-60.07,72.43A29.86,29.86,0,0,1,50.36,355.34Z"/></g><line class="cls-4" x1="268" y1="263" x2="258.74" y2="65.86"/><g class="cls-5"><rect class="cls-6" x="213" y="40.51" width="62.5" height="63.49"/></g><circle class="cls-7" cx="242.8" cy="80.49" r="21.51"/><path class="cls-8" d="M235.28,95.29a0.48,0.48,0,0,1-.44-0.67l5.4-12.83h-5a0.48,0.48,0,0,1-.43-0.7l7.23-14.47a0.48,0.48,0,0,1,.43-0.27h7.72a0.48,0.48,0,0,1,.41.74L245,76h5.72a0.48,0.48,0,0,1,.37.79L235.65,95.12a0.48,0.48,0,0,1-.37.17"/><line class="cls-9" x1="271.21" y1="264.81" x2="371.3" y2="251.61"/><path class="cls-10" d="M372.87,311c19.47,10.39,27.75,28.4,34,42,5.34,11.62,24.72,53.79,3.5,90.5-13.9,24-44.4,44.34-63.5,36.5-13.41-5.5-7.86-19.41-26.5-51-19.6-33.22-37.88-38.43-43-67-1.43-8-3.29-18.36,1.5-29C291.26,305.49,340.31,293.63,372.87,311Z"/><line class="cls-11" x1="271.21" y1="264.81" x2="323.17" y2="311.56"/><circle class="cls-12" cx="321.8" cy="312.99" r="21.51"/><path class="cls-13" d="M152.5,325.5c-19.47,10.39-27.75,28.4-34,42-5.34,11.62-24.72,53.79-3.5,90.5,13.9,24,44.4,44.34,63.5,36.5,13.41-5.5,7.86-19.41,26.5-51,19.6-33.22,37.88-38.43,43-67,1.43-8,3.29-18.36-1.5-29C234.11,320,185.06,308.13,152.5,325.5Z"/><line class="cls-4" x1="265.5" y1="266" x2="211.24" y2="305.86"/><path class="cls-14" d="M300.08,213.89l16-5.13c1.4-.45,2.48-2.42,2.44-4.41V204l-16,5.13c-1.4.45-2.48,2.42-2.44,4.41v0.33Z"/><path class="cls-14" d="M322.37,198.57l-16,5.13c-1.4.45-2.48,2.42-2.44,4.41v0.33l16-5.13c1.4-.45,2.48-2.42,2.44-4.41v-0.33Z"/><path class="cls-14" d="M326.24,193.13l-16,5.13c-1.4.45-2.48,2.42-2.44,4.41V203l16-5.13c1.4-.45,2.48-2.42,2.44-4.41v-0.33Z"/><path class="cls-14" d="M330.11,187.68l-16,5.13c-1.4.45-2.48,2.42-2.44,4.41v0.33l16-5.13c1.4-.45,2.48-2.42,2.44-4.41v-0.33Z"/><path class="cls-14" d="M334,182.24l-16,5.13c-1.4.45-2.48,2.42-2.44,4.41v0.33l16-5.13c1.4-.45,2.48-2.42,2.44-4.41v-0.33Z"/><path class="cls-14" d="M337.85,176.79l-16,5.13c-1.4.45-2.48,2.42-2.44,4.41v0.33l16-5.13c1.4-.45,2.48-2.42,2.44-4.41v-0.33Z"/><path class="cls-14" d="M341.72,171.34l-16,5.13c-1.4.45-2.48,2.42-2.44,4.41v0.33l16-5.13c1.4-.45,2.48-2.42,2.44-4.41v-0.33Z"/><path class="cls-14" d="M327.17,175.77l16-5.13c1.4-.45,2.48-2.42,2.44-4.41V165.9l-16,5.13c-1.4.45-2.48,2.42-2.44,4.41v0.33Z"/><path class="cls-14" d="M287.54,247.59l-16,5.13c-1.4.45-2.48,2.42-2.44,4.41v0.33l16-5.13c1.4-.45,2.48-2.42,2.44-4.41v-0.33Z"/><path class="cls-14" d="M291.41,242.14l-16,5.13c-1.4.45-2.48,2.42-2.44,4.41V252l16-5.13c1.4-.45,2.48-2.42,2.44-4.41v-0.33Z"/><path class="cls-14" d="M295.28,236.69l-16,5.13c-1.4.45-2.48,2.42-2.44,4.41v0.33l16-5.13c1.4-.45,2.48-2.42,2.44-4.41v-0.33Z"/><path class="cls-14" d="M299.15,231.25l-16,5.13c-1.4.45-2.48,2.42-2.44,4.41v0.33l16-5.13c1.4-.45,2.48-2.42,2.44-4.41v-0.33Z"/><path class="cls-14" d="M303,225.8l-16,5.13c-1.4.45-2.48,2.42-2.44,4.41v0.33l16-5.13c1.4-.45,2.48-2.42,2.44-4.41V225.8Z"/><path class="cls-14" d="M306.89,220.36l-16,5.13c-1.4.45-2.48,2.42-2.44,4.41v0.33l16-5.13c1.4-.45,2.48-2.42,2.44-4.41v-0.33Z"/><path class="cls-14" d="M310.76,214.91l-16,5.13c-1.4.45-2.48,2.42-2.44,4.41v0.33l16-5.13c1.4-.45,2.48-2.42,2.44-4.41v-0.33Z"/><path class="cls-14" d="M314.63,209.47l-16,5.13c-1.4.45-2.48,2.42-2.44,4.41v0.33l16-5.13c1.4-.45,2.48-2.42,2.44-4.41v-0.33Z"/><path class="cls-14" d="M337.49,160.09l-0.16,0c-1.4.45-2.48,2.42-2.44,4.41v0.33l6.43-2.06Z"/><path class="cls-14" d="M341.56,163l-8.1,2.6C332.06,166,331,168,331,170v0.33l9.26-3,5.11-1.64Z"/><path class="cls-14" d="M277.25,263.29l0.17-.07c1.4-.45,2.49-2.43,2.44-4.42l0-.31-6.44,2.07Z"/><path class="cls-14" d="M273.17,260.39l1.38-.46,6.74-2.17c1.4-.45,2.49-2.43,2.44-4.42V253l-9.27,3-5.13,1.66Z"/><ellipse class="cls-14" cx="270.91" cy="263.35" rx="11.13" ry="11.27" transform="translate(-28.17 494.21) rotate(-81.85)"/><g class="cls-15"><rect class="cls-6" x="165.5" y="280.51" width="62.5" height="63.49"/></g><circle class="cls-7" cx="195.3" cy="320.49" r="21.51"/><path class="cls-8" d="M187.78,335.29a0.48,0.48,0,0,1-.44-0.67l5.4-12.83h-5a0.48,0.48,0,0,1-.43-0.7l7.23-14.47a0.48,0.48,0,0,1,.43-0.27h7.72a0.48,0.48,0,0,1,.41.74L197.5,316h5.72a0.48,0.48,0,0,1,.37.79l-15.43,18.33a0.48,0.48,0,0,1-.37.17"/><g class="cls-16"><rect class="cls-17" x="292" y="285.75" width="62.5" height="50.75"/></g><circle class="cls-7" cx="321.8" cy="312.99" r="21.51"/><path class="cls-8" d="M314.28,327.79a0.48,0.48,0,0,1-.44-0.67l5.4-12.83h-5a0.48,0.48,0,0,1-.43-0.7l7.23-14.47a0.48,0.48,0,0,1,.43-0.27h7.72a0.48,0.48,0,0,1,.41.74L324,308.5h5.72a0.48,0.48,0,0,1,.37.79l-15.43,18.33a0.48,0.48,0,0,1-.37.17"/><circle class="cls-12" cx="372.8" cy="253.99" r="21.51"/><circle class="cls-18" cx="372.8" cy="253.99" r="21.51"/><circle class="cls-7" cx="372.8" cy="253.99" r="21.51"/><path class="cls-8" d="M365.28,268.79a0.48,0.48,0,0,1-.44-0.67l5.4-12.83h-5a0.48,0.48,0,0,1-.43-0.7l7.23-14.47a0.48,0.48,0,0,1,.43-0.27h7.72a0.48,0.48,0,0,1,.41.74L375,249.5h5.72a0.48,0.48,0,0,1,.37.79l-15.43,18.33a0.48,0.48,0,0,1-.37.17"/><g class="cls-19"><rect class="cls-14" x="316.11" y="143.22" width="84.29" height="26.97"/></g><circle class="cls-7" cx="356.3" cy="138.49" r="29.01"/><path class="cls-8" d="M346.16,158.45a0.65,0.65,0,0,1-.6-0.9l7.29-17.31h-6.69a0.65,0.65,0,0,1-.58-0.94l9.76-19.51a0.65,0.65,0,0,1,.58-0.36h10.41a0.65,0.65,0,0,1,.55,1l-7.61,12H367a0.65,0.65,0,0,1,.5,1.07l-20.82,24.72a0.65,0.65,0,0,1-.5.23"/><path class="cls-20" d="M404.41,112.22l-8.65-15a2.69,2.69,0,0,0-5.14,0l-8.64,15a2.69,2.69,0,0,0,2.57,4.45h17.29A2.69,2.69,0,0,0,404.41,112.22Zm-11.08,1.7a1.63,1.63,0,1,1,1.63-1.63A1.63,1.63,0,0,1,393.33,113.92Zm1.28-5.49h0s0,0.1,0,.15a1.28,1.28,0,0,1-2.52-.15h0l-0.39-5.93a1.67,1.67,0,1,1,3.34,0Z"/><text class="cls-21" transform="translate(224.17 274.17)">10%</text><text class="cls-21" transform="translate(289.5 257.5)">0%</text><text class="cls-21" transform="translate(267.5 284)">40%</text><text class="cls-21" transform="translate(236 242.5)">60%</text><text class="cls-22" transform="translate(414.5 241.05)">0<tspan x="7.14" y="0">W</tspan></text><text class="cls-22" transform="translate(340 295.5) scale(1.05 1)">3.0<tspan x="17.4" y="0">W</tspan><tspan x="28.46" y="0">,</tspan><tspan class="cls-23" x="31.22" y="0"> 10 s</tspan></text><text class="cls-22" transform="translate(279 77.38)">7.5<tspan x="17.4" y="0">W</tspan></text><line class="cls-7" x1="272.78" y1="73.54" x2="264.36" y2="84.71"/><line class="cls-7" x1="273.8" y1="66.38" x2="273.41" y2="80.48"/><text class="cls-22" transform="translate(123.5 316.05)">7.5<tspan x="17.4" y="0">W</tspan></text><line class="cls-7" x1="155.99" y1="312.21" x2="173.79" y2="320.49"/><line class="cls-7" x1="155.85" y1="304.83" x2="155.46" y2="318.94"/><text class="cls-24" transform="translate(173 359.69)">26 Ω</text><text class="cls-24" transform="translate(179.33 79.69)">26 Ω</text><text class="cls-21" transform="matrix(0.63, -0.78, 0.78, 0.63, 299.26, 202.76)">0.92<tspan x="18.4" y="0">A</tspan></text><path class="cls-25" d="M405.47,111.85l-8.64-15a3.57,3.57,0,0,0-6.7,0l-8.64,15a3.56,3.56,0,0,0,3.35,5.79h17.29A3.55,3.55,0,0,0,405.47,111.85Zm-0.42,3.62a3.2,3.2,0,0,1-2.92,1.28H384.84a2.69,2.69,0,0,1-2.57-4.45l8.64-15a2.69,2.69,0,0,1,5.14,0l8.65,15A3.17,3.17,0,0,1,405.05,115.47Zm-11.43-14.56a1.67,1.67,0,0,0-1.67,1.67l0.39,5.93h0a1.28,1.28,0,0,0,2.52.15s0-.1,0-0.15h0l0.39-5.93A1.67,1.67,0,0,0,393.62,100.91Zm0,9.84a1.63,1.63,0,1,0,1.63,1.62A1.63,1.63,0,0,0,393.62,110.75Zm-1.27-2.24a1.28,1.28,0,0,0,2.52.15s0-.1,0-0.15h0l0.39-5.93a1.67,1.67,0,1,0-3.34,0l0.39,5.93h0Zm1.27,2.24a1.63,1.63,0,1,0,1.63,1.62A1.63,1.63,0,0,0,393.62,110.75Zm0,0a1.63,1.63,0,1,0,1.63,1.62A1.63,1.63,0,0,0,393.62,110.75Zm0-9.84a1.67,1.67,0,0,0-1.67,1.67l0.39,5.93h0a1.28,1.28,0,0,0,2.52.15s0-.1,0-0.15h0l0.39-5.93A1.67,1.67,0,0,0,393.62,100.91Z"/><text class="cls-22" transform="translate(396 143)">11<tspan x="14.28" y="0">W</tspan><tspan x="25.34" y="0">,</tspan><tspan class="cls-23" x="28.1" y="0"> 1.2 s</tspan></text><line class="cls-7" x1="409.76" y1="237.71" x2="391.96" y2="245.99"/><line class="cls-7" x1="409.9" y1="230.33" x2="410.29" y2="244.44"/><text class="cls-24" transform="translate(313 352.19)">50 Ω</text><circle class="cls-26" cx="391.62" cy="260.5" r="8.12"/><circle class="cls-26" cx="312.47" cy="311.04" r="4.06"/><circle class="cls-26" cx="219" cy="324" r="4.86"/><circle class="cls-26" cx="240.77" cy="92.67" r="2.97" transform="translate(104.35 311.63) rotate(-79.13)"/><circle class="cls-26" cx="382.58" cy="103.41" r="8.12"/><line class="cls-27" x1="341.02" y1="160.43" x2="219" y2="324"/><line class="cls-28" x1="382.58" y1="103.41" x2="341.02" y2="160.43"/><line class="cls-29" x1="341.02" y1="160.43" x2="240.77" y2="92.67"/><line class="cls-29" x1="341.02" y1="160.43" x2="312.47" y2="311.04"/><line class="cls-29" x1="341.02" y1="160.43" x2="391.62" y2="260.5"/><g class="cls-2"><path class="cls-3" d="M50.36,355.34a30,30,0,0,1-15.17-55.9c18.4-10.76,29.14-22.28,31.93-34.24,1.52-6.55.18-10.58-4.32-22.34S52.26,215.26,51,193c-0.48-8.83-3-87.49,56.87-129,45-31.17,96.37-21.76,116.37-16.27a30,30,0,0,1-15.89,57.86c-9.27-2.54-41.43-9.51-66.3,7.73-13.39,9.28-22.68,24.13-27.62,44.13A120.68,120.68,0,0,0,111,189.71c0.7,12.92,4,21.64,7.89,31.74,5.55,14.53,12.46,32.62,6.71,57.35-6.67,28.65-26.88,53-60.07,72.43A29.86,29.86,0,0,1,50.36,355.34Z"/></g><path class="cls-10" d="M372.87,311c19.47,10.39,27.75,28.4,34,42,5.34,11.62,24.72,53.79,3.5,90.5-13.9,24-44.4,44.34-63.5,36.5-13.41-5.5-7.86-19.41-26.5-51-19.6-33.22-37.88-38.43-43-67-1.43-8-3.29-18.36,1.5-29C291.26,305.49,340.31,293.63,372.87,311Z"/><path class="cls-13" d="M152.5,325.5c-19.47,10.39-27.75,28.4-34,42-5.34,11.62-24.72,53.79-3.5,90.5,13.9,24,44.4,44.34,63.5,36.5,13.41-5.5,7.86-19.41,26.5-51,19.6-33.22,37.88-38.43,43-67,1.43-8,3.29-18.36-1.5-29C234.11,320,185.06,308.13,152.5,325.5Z"/></svg>