<svg id="Clean" xmlns="http://www.w3.org/2000/svg" width="11.78mm" height="12.77mm" viewBox="0 0 33.39 36.19"><defs><style>.cls-1{fill:none;stroke:#231f20;stroke-miterlimit:10;stroke-width:2px;fill-rule:evenodd;}.cls-2{fill:#29180d;}</style></defs><title>immaterial</title><path class="cls-1" d="M1.09,35.69a0.58,0.58,0,0,1-.54-0.81L7.12,19.27h-6a0.59,0.59,0,0,1-.53-0.85L9.36,0.82A0.59,0.59,0,0,1,9.88.5h9.38a0.59,0.59,0,0,1,.49.9L12.9,12.23h6.95a0.59,0.59,0,0,1,.45,1L1.53,35.48a0.58,0.58,0,0,1-.45.21"/><rect class="cls-2" x="21.28" y="7.62" width="12.11" height="2.42"/><rect class="cls-2" x="26.13" y="2.78" width="2.42" height="12.11"/></svg>