<svg id="Clean" xmlns="http://www.w3.org/2000/svg" width="21.17mm" height="21.17mm" viewBox="0 0 60.02 60.02"><defs><style>.cls-1{fill:none;stroke-width:2px;}.cls-1,.cls-2{stroke:#231f20;stroke-miterlimit:10;}.cls-2{fill:#fff;stroke-width:1.5px;fill-rule:evenodd;}</style></defs><title>immaterial</title><g id="power"><circle id="power_overlay" class="cls-1" cx="30.01" cy="30.01" r="29.01"/><path id="symbol" class="cls-2" d="M19.87,50a0.65,0.65,0,0,1-.6-0.9l7.29-17.31H19.87a0.65,0.65,0,0,1-.58-0.94L29,11.31a0.65,0.65,0,0,1,.58-0.36H40a0.65,0.65,0,0,1,.55,1L33,24h7.71a0.65,0.65,0,0,1,.5,1.07L20.37,49.75a0.65,0.65,0,0,1-.5.23"/></g></svg>